PathFileType	4	(X/Y/Z)	/Users/itak/Documents/Research/Walk-IL/dataset/trc/00231_00009.trc
DataRate	CameraRate	NumFrames	NumMarkers	Units	OrigDataRate	OrigDataStartFrame	OrigNumFrames
100.000000	100.000000	4	53	mm	100.000000	520	833
Frame#	Time	RPSI			LPSI			L3			STRN			T10			C7			CLAV			RBAK			LBAK			LSHO			LUPA			LAEL			LAOL			LWTS			LWPS			LFRA			LIFD			LHPS			LHTS			RSHO			RUPA			RAEL			RAOL			RWTS			RWPS			RFRA			RIFD			RHTS			RHPS			RBHD			LFHD			RFHD			LBHD			LHIP			RHIP			RASI			LASI			LKNE			LTHI			LANK			LTIP			LTOE			LMT1			LMT5			LHEE			RKNE			RTHI			RANK			RTIP			RTOE			RMT1			RMT5			RHEE			
		X1	Y1	Z1	X2	Y2	Z2	X3	Y3	Z3	X4	Y4	Z4	X5	Y5	Z5	X6	Y6	Z6	X7	Y7	Z7	X8	Y8	Z8	X9	Y9	Z9	X10	Y10	Z10	X11	Y11	Z11	X12	Y12	Z12	X13	Y13	Z13	X14	Y14	Z14	X15	Y15	Z15	X16	Y16	Z16	X17	Y17	Z17	X18	Y18	Z18	X19	Y19	Z19	X20	Y20	Z20	X21	Y21	Z21	X22	Y22	Z22	X23	Y23	Z23	X24	Y24	Z24	X25	Y25	Z25	X26	Y26	Z26	X27	Y27	Z27	X28	Y28	Z28	X29	Y29	Z29	X30	Y30	Z30	X31	Y31	Z31	X32	Y32	Z32	X33	Y33	Z33	X34	Y34	Z34	X35	Y35	Z35	X36	Y36	Z36	X37	Y37	Z37	X38	Y38	Z38	X39	Y39	Z39	X40	Y40	Z40	X41	Y41	Z41	X42	Y42	Z42	X43	Y43	Z43	X44	Y44	Z44	X45	Y45	Z45	X46	Y46	Z46	X47	Y47	Z47	X48	Y48	Z48	X49	Y49	Z49	X50	Y50	Z50	X51	Y51	Z51	X52	Y52	Z52	X53	Y53	Z53	

521	5.2	-424.9768676757812	1026.54443359375	-379.1548767089844	-322.0285949707031	1029.608032226562	-318.1660766601562	-364.2062683105469	1119.129150390625	-342.2780151367188	-472.0436706542969	1312.948608398438	-118.1125946044922	-368.8728942871094	1243.698852539062	-351.7717895507812	-388.7081604003906	1506.207641601562	-300.07080078125	-460.5091857910156	1430.600708007812	-145.5155181884766	-430.3966369628906	1367.68505859375	-396.4127807617188	-281.2834167480469	1468.910278320312	-270.9260864257812	-266.7864685058594	1473.915161132812	-166.0545654296875	-181.9990539550781	1355.798828125	-160.3524780273438	-165.4732818603516	1144.044677734375	-139.2020111083984	-181.0271911621094	1128.259033203125	-223.6406402587891	-264.8661804199219	918.0932006835938	-71.61660766601562	-183.8326416015625	896.18505859375	-63.76464462280273	-165.8474578857422	1037.531860351562	-111.4118194580078	-272.90869140625	724.528076171875	-56.67508697509766	-200.9488067626953	809.0185546875	-46.46766662597656	-265.8798522949219	819.1179809570312	-27.88283920288086	-568.6800537109375	1473.544677734375	-312.6553955078125	-625.1364135742188	1410.01708984375	-354.7397766113281	-680.603759765625	1134.05908203125	-382.7897033691406	-585.7315063476562	1119.335815429688	-386.8419799804688	-692.6658325195312	946.8828735351562	-206.3282012939453	-740.408447265625	922.3214721679688	-272.5941772460938	-705.4633178710938	1069.482421875	-351.7984313964844	-703.0665283203125	760.7567138671875	-155.6233673095703	-726.3715209960938	836.4607543945312	-151.5820617675781	-759.0579833984375	825.2340087890625	-215.1058654785156	-475.7871704101562	1664.988037109375	-277.1501770019531	-416.1457214355469	1699.418823242188	-60.81577301025391	-514.4208374023438	1698.576904296875	-77.8319091796875	-352.73828125	1670.127807617188	-210.0177154541016	-257.1296997070312	970.9351196289062	-156.6292114257812	-567.380126953125	991.185302734375	-349.391845703125	-583.6170654296875	1040.6513671875	-247.4670257568359	-347.8192138671875	1019.464965820312	-98.17629241943359	-410.6979370117188	502.0634460449219	-105.2641372680664	-352.6399230957031	638.0709838867188	-107.8766021728516	-438.8321838378906	35.66470718383789	-214.9605407714844	-416.7839965820312	271.8433227539062	-154.3462371826172	-581.3928833007812	44.27394485473633	-42.45986175537109	-590.98828125	38.75984191894531	-122.6282119750977	-478.6167297363281	39.19131088256836	-91.55980682373047	-461.3233032226562	41.54171371459961	-291.1484375	-637.2032470703125	506.5829162597656	-285.8410949707031	-624.4849853515625	776.4111328125	-293.4634094238281	-426.921875	192.9259338378906	-613.1748046875	-603.14990234375	399.1987609863281	-326.1235961914062	-488.9612731933594	63.8868522644043	-458.9927062988281	-428.7802124023438	100.3844604492188	-465.5879821777344	-490.5709533691406	112.9365081787109	-568.1445922851562	-358.218505859375	241.4352874755859	-613.3309326171875	
522	5.21	-429.5627746582031	1026.9853515625	-373.9868469238281	-325.8239440917969	1030.262451171875	-314.3264770507812	-367.543212890625	1119.840576171875	-337.7069091796875	-473.8993835449219	1313.669677734375	-112.5846328735352	-371.8454895019531	1244.3720703125	-346.8182067871094	-391.3684997558594	1506.78369140625	-294.8440856933594	-462.4884948730469	1431.334838867188	-139.9888610839844	-433.6295471191406	1368.37890625	-390.9218444824219	-283.6377258300781	1469.465576171875	-266.2583312988281	-268.9345703125	1474.52001953125	-161.4840545654297	-184.4579772949219	1356.401000976562	-154.6934356689453	-168.8585205078125	1144.901733398438	-130.2244873046875	-183.5733032226562	1127.849975585938	-214.6207427978516	-270.3830261230469	920.5211791992188	-60.28329086303711	-189.5850067138672	898.5313110351562	-50.77045059204102	-170.1256103515625	1038.8818359375	-100.7547302246094	-279.4896850585938	727.3895263671875	-41.992431640625	-207.3010406494141	811.7737426757812	-32.18102264404297	-272.4756774902344	822.467529296875	-14.64340877532959	-571.439208984375	1474.426635742188	-306.6090393066406	-628.1268920898438	1410.978271484375	-348.5245971679688	-683.2302856445312	1134.91015625	-376.794677734375	-588.227294921875	1120.382080078125	-381.1289367675781	-694.8302001953125	947.7369384765625	-200.3290863037109	-742.5195922851562	923.0130004882812	-266.5619506835938	-707.9808349609375	1070.275512695312	-345.8035583496094	-704.9646606445312	761.6997680664062	-149.3007965087891	-728.426513671875	837.3753051757812	-145.3901519775391	-761.0546875	826.0087280273438	-208.9502716064453	-478.4367370605469	1665.753173828125	-271.176025390625	-417.2181701660156	1699.876098632812	-55.21708297729492	-515.6151733398438	1699.040405273438	-71.53104400634766	-354.9202880859375	1670.830810546875	-204.9301910400391	-258.4705810546875	971.4016723632812	-153.7488098144531	-571.52978515625	992.009033203125	-341.9585266113281	-586.2328491210938	1041.307861328125	-239.8787841796875	-348.1310729980469	1020.018249511719	-93.71573638916016	-410.3045043945312	501.7638854980469	-104.5110549926758	-352.7586669921875	637.9642333984375	-106.6038818359375	-438.8342895507812	35.65324783325195	-214.9815368652344	-416.5971984863281	271.7377014160156	-154.04541015625	-581.37255859375	44.27447128295898	-42.51516723632812	-591.0219116210938	38.74819564819336	-122.6754608154297	-478.6278991699219	39.17455291748047	-91.58836364746094	-461.2806701660156	41.55004501342773	-291.1954040527344	-644.1422729492188	508.287353515625	-270.5631713867188	-629.5638427734375	777.9405517578125	-282.9421997070312	-445.3150634765625	188.5821533203125	-598.1383056640625	-612.0927734375	400.3613891601562	-310.1326599121094	-506.0148620605469	63.58789825439453	-440.3116149902344	-445.2532958984375	98.43836212158203	-449.0386962890625	-508.94775390625	110.5022811889648	-550.1924438476562	-375.4643249511719	235.4786224365234	-600.7817993164062	
523	5.22	-434.1960754394531	1027.439575195312	-368.8483276367188	-329.6250915527344	1030.91748046875	-310.5723876953125	-370.8959350585938	1120.496459960938	-333.1938171386719	-475.6726684570312	1314.329467773438	-107.0461273193359	-374.8138122558594	1245.008056640625	-341.8430480957031	-394.0046081542969	1507.328979492188	-289.6290893554688	-464.4411926269531	1432.015869140625	-134.453369140625	-436.8778686523438	1369.03173828125	-385.4258117675781	-285.9878845214844	1469.976318359375	-261.6137390136719	-271.044921875	1475.078857421875	-156.9500732421875	-186.8674011230469	1356.968139648438	-149.1199188232422	-172.1671142578125	1145.784545898438	-121.3508224487305	-186.1425476074219	1127.444091796875	-205.6406860351562	-275.8151550292969	923.0082397460938	-48.99513626098633	-195.2436981201172	900.9974365234375	-37.84480667114258	-174.3387298583984	1040.287109375	-90.17887115478516	-286.0588989257812	730.4436645507812	-27.25625610351562	-213.5583953857422	814.6961059570312	-17.93175506591797	-278.9920043945312	825.9926147460938	-1.403416156768799	-574.1962890625	1475.249755859375	-300.5209045410156	-631.1213989257812	1411.900634765625	-342.2659301757812	-685.9005737304688	1135.740356445312	-370.8454284667969	-590.7410278320312	1121.376953125	-375.515625	-697.0794677734375	948.4537963867188	-194.5030364990234	-744.7144775390625	923.6141967773438	-260.7198181152344	-710.5396118164062	1071.02880859375	-339.9083251953125	-706.9632568359375	762.4781494140625	-143.2651519775391	-730.6004028320312	838.1244506835938	-139.4450836181641	-763.1436767578125	826.6597290039062	-203.0499420166016	-481.0503845214844	1666.46826171875	-265.2064514160156	-418.2587585449219	1700.310791015625	-49.63712310791016	-516.7697143554688	1699.47998046875	-65.24827575683594	-357.0687866210938	1671.498657226562	-199.8487243652344	-259.8079528808594	971.8448486328125	-151.0452270507812	-575.6557006835938	992.8193359375	-334.5087585449219	-588.7772216796875	1041.92919921875	-232.2708740234375	-348.3771667480469	1020.509155273438	-89.38417816162109	-409.8319396972656	501.4634399414062	-103.8243255615234	-352.7966918945312	637.8670043945312	-105.4458312988281	-438.8379821777344	35.64182662963867	-215.0010833740234	-416.3872375488281	271.6354675292969	-153.7848052978516	-581.3557739257812	44.27489852905273	-42.56843948364258	-591.0595703125	38.73690414428711	-122.7276382446289	-478.636962890625	39.15745544433594	-91.61783599853516	-461.2277526855469	41.56732177734375	-291.2405395507812	-650.4061279296875	510.0389404296875	-255.2663269042969	-634.3898315429688	779.4627685546875	-272.4277954101562	-464.0510559082031	183.2469787597656	-582.2169189453125	-620.4703369140625	401.5267028808594	-294.0059814453125	-523.537841796875	62.98685455322266	-420.4611206054688	-462.177001953125	95.906982421875	-431.4452209472656	-527.6451416015625	107.4507598876953	-531.0700073242188	-393.0342712402344	228.2210540771484	-587.5194091796875	
524	5.23	-438.8729553222656	1027.927368164062	-363.7208251953125	-333.4323120117188	1031.580810546875	-306.8837585449219	-374.2736206054688	1121.087158203125	-328.7211303710938	-477.3701171875	1314.919189453125	-101.4913940429688	-377.8135070800781	1245.59619140625	-336.827392578125	-396.6189270019531	1507.843017578125	-284.4169006347656	-466.3705444335938	1432.636840820312	-128.9023590087891	-440.1503601074219	1369.644409179688	-379.917724609375	-288.3375244140625	1470.440673828125	-256.9855041503906	-273.1277770996094	1475.58349609375	-152.4371643066406	-189.2345428466797	1357.493774414062	-143.6282958984375	-175.3833312988281	1146.678100585938	-112.6225967407227	-188.7209777832031	1127.047973632812	-196.7453918457031	-281.1330871582031	925.5656127929688	-37.7710075378418	-200.7835693359375	903.5723876953125	-25.03878593444824	-178.4730529785156	1041.732543945312	-79.72162628173828	-292.6302795410156	733.7054443359375	-12.45303058624268	-219.7143096923828	817.7776489257812	-3.761631727218628	-285.3939208984375	829.70751953125	11.82220363616943	-576.9542236328125	1476.010498046875	-294.3766174316406	-634.1276245117188	1412.78125	-335.9463500976562	-688.6271362304688	1136.543579101562	-364.913818359375	-593.283203125	1122.325073242188	-369.9775695800781	-699.3970336914062	949.0130004882812	-188.8352203369141	-746.9909057617188	924.1141357421875	-255.0489196777344	-713.1317749023438	1071.730834960938	-334.0894775390625	-709.0396118164062	763.06201171875	-137.5267791748047	-732.8662719726562	838.6806640625	-133.7447814941406	-765.313232421875	827.16552734375	-197.3960571289062	-483.632568359375	1667.12158203125	-259.2380676269531	-419.2640991210938	1700.7314453125	-44.08030319213867	-517.8801879882812	1699.904663085938	-58.98080825805664	-359.1830749511719	1672.119506835938	-194.7775268554688	-261.1400451660156	972.253662109375	-148.5111999511719	-579.760498046875	993.6151123046875	-327.0436401367188	-591.263916015625	1042.511474609375	-224.6480560302734	-348.5934753417969	1020.905822753906	-85.19157409667969	-409.3031616210938	501.1562805175781	-103.1709136962891	-352.7756042480469	637.7781372070312	-104.3708877563477	-438.8447875976562	35.63186264038086	-215.0188293457031	-416.1553344726562	271.5360717773438	-153.5533142089844	-581.3421630859375	44.27249526977539	-42.61835479736328	-591.1018676757812	38.7263069152832	-122.7825775146484	-478.6425476074219	39.13935089111328	-91.64659881591797	-461.1629333496094	41.59942626953125	-291.2814025878906	-655.9910888671875	511.818603515625	-239.9723510742188	-638.9251098632812	780.9622192382812	-261.9121398925781	-483.0640258789062	177.0159149169922	-565.3547973632812	-628.2702026367188	402.6835327148438	-277.7646789550781	-541.3766479492188	62.18492126464844	-399.4241943359375	-479.4313049316406	92.90373992919922	-412.7761840820312	-546.7057495117188	103.9532852172852	-510.7776794433594	-410.92578125	219.77197265625	-573.4852294921875	
